<svg xmlns="http://www.w3.org/2000/svg" xmlns:xlink="http://www.w3.org/1999/xlink" version="1.1" x="0px" y="0px" viewBox="0 0 100 125" style="enable-background:new 0 0 100 100;" xml:space="preserve"><g><path xmlns="http://www.w3.org/2000/svg" fill="white" d="M64.8,28.1c-4.8-4.2-10.9-6.2-17.3-5.5c-10,1.1-18.2,9.2-19.5,19.1c-0.8,5.9,0.8,11.7,4.5,16.4c3,3.9,4.7,8.8,4.9,13.9   h-0.8v4h0.9h4h17h4h0.8v-4h-0.8c0.2-5,2.1-10,5.3-14.4c2.8-3.8,4.3-8.3,4.3-13.1C72.2,38.4,69.5,32.3,64.8,28.1z M64.7,55.4   c-3.8,5.1-5.8,10.9-6.1,16.8H52V54.8h5.5v-4H52h-4h-5.6v4H48v17.4h-6.6c-0.2-6.1-2.3-11.8-5.8-16.4c-3-3.8-4.3-8.6-3.7-13.5   c1.1-8.2,7.8-14.7,15.9-15.7c5.3-0.6,10.3,1,14.2,4.5c3.9,3.4,6.1,8.4,6.1,13.6C68.2,48.6,67,52.3,64.7,55.4z"/><rect x="48" y="3.5" width="4" height="13.8" fill="white"/><rect x="72.3" y="24.4" transform="matrix(0.8337 -0.5522 0.5522 0.8337 -1.4335 47.9973)" width="13.2" height="4" fill="white"/><rect x="19" y="19.8" transform="matrix(0.5522 -0.8337 0.8337 0.5522 -12.5748 29.3448)" width="4" height="13.2" fill="white"/><rect x="38.6" y="82.2" width="22.8" height="4" fill="white"/><rect x="41.7" y="92.5" width="16.6" height="4" fill="white"/></g></svg>